<svg xmlns="http://www.w3.org/2000/svg" xmlns:xlink="http://www.w3.org/1999/xlink" viewBox="0,0,256,256" width="100px" height="100px" fill-rule="nonzero"><g fill="#ffffff" fill-rule="nonzero" stroke="none" stroke-width="1" stroke-linecap="butt" stroke-linejoin="miter" stroke-miterlimit="10" stroke-dasharray="" stroke-dashoffset="0" font-family="none" font-weight="none" font-size="none" text-anchor="none" style="mix-blend-mode: normal"><g transform="scale(5.12,5.12)"><path d="M9,5c-2.19733,0 -4,1.80267 -4,4v32c0,2.19733 1.80267,4 4,4h32c2.19733,0 4,-1.80267 4,-4v-32c0,-2.19733 -1.80267,-4 -4,-4zM23.51172,7h17.48828c1.11667,0 2,0.88333 2,2v32c0,1.11667 -0.88333,2 -2,2h-3.94141c-0.62262,-5.98233 -1.86033,-13.99453 -3.56836,-20.74609c-0.89486,-3.53725 -1.906,-6.70501 -3.05664,-9.06641c-0.57532,-1.1807 -1.18239,-2.16449 -1.88281,-2.90625c-0.70042,-0.74176 -1.55911,-1.28125 -2.55078,-1.28125c-2.112,0 -3.84317,1.64244 -5.37891,3.39844c-1.53573,1.756 -2.83349,3.77355 -3.58789,5.00391c-5.089,8.30147 -8.49005,17.60447 -10.0332,22.27344v-6.62305c3.34096,-7.31757 9.25212,-19.29122 16.51172,-26.05273zM26,11c0.25833,0 0.61774,0.14801 1.09766,0.65625c0.42515,0.45024 0.89362,1.18629 1.35742,2.08398c-4.90743,3.18744 -8.02292,10.33418 -10.13867,16.82422c-2.03203,6.23323 -2.91539,11.30705 -3.10547,12.43555h-6.21094c-0.32157,0 -0.61937,-0.07995 -0.88672,-0.21094c0.38425,-1.31377 4.07648,-13.65949 10.625,-24.3418c0.7276,-1.18665 1.98741,-3.13017 3.38867,-4.73242c1.40127,-1.60225 2.98505,-2.71484 3.87305,-2.71484z"></path></g></g></svg>