<?xml version="1.0" encoding="utf-8"?>
<!-- Generator: Adobe Illustrator 24.1.3, SVG Export Plug-In . SVG Version: 6.00 Build 0)  -->
<svg version="1.1" baseProfile="tiny" id="Layer_1" xmlns="http://www.w3.org/2000/svg" xmlns:xlink="http://www.w3.org/1999/xlink"
	 x="0px" y="0px" viewBox="0 0 176 176" overflow="visible" xml:space="preserve">
<g>
	<g transform="scale(5.12,5.12)">
		<path fill="none" stroke="#FFFFFF" stroke-width="0.4" stroke-miterlimit="10" d="M34.38,0H0v34.38h34.38V0z M15.91,1.72h15.03
			c0.97,0,1.72,0.77,1.72,1.72v27.51c0,0.97-0.77,1.72-1.72,1.72h-3.39c-0.53-5.15-1.61-12.04-3.06-17.83
			c-0.77-3.04-1.63-5.77-2.62-7.79c-0.51-1.01-1.03-1.87-1.63-2.51c-0.59-0.64-1.34-1.1-2.2-1.1c-1.8,0-3.3,1.41-4.62,2.93
			S11,9.6,10.34,10.65C5.96,17.78,3.04,25.79,1.72,29.8v-5.7C4.6,17.83,9.68,7.53,15.91,1.72L15.91,1.72z M18.05,5.15
			c0.22,0,0.53,0.13,0.95,0.57c0.37,0.4,0.77,1.01,1.17,1.78c-4.2,2.75-6.89,8.89-8.71,14.48c-1.74,5.35-2.51,9.73-2.66,10.7H3.43
			c-0.29,0-0.53-0.07-0.77-0.18c0.33-1.12,3.5-11.75,9.13-20.93c0.64-1.03,1.72-2.71,2.93-4.09C15.93,6.12,17.3,5.15,18.05,5.15z"/>
	</g>
</g>
</svg>
