<?xml version="1.0" encoding="utf-8"?>
<!-- Generator: Adobe Illustrator 24.1.3, SVG Export Plug-In . SVG Version: 6.00 Build 0)  -->
<svg version="1.1" baseProfile="tiny" id="Layer_2" xmlns="http://www.w3.org/2000/svg" xmlns:xlink="http://www.w3.org/1999/xlink"
	 x="0px" y="0px" viewBox="0 0 176 176" overflow="visible" xml:space="preserve">
<g>
	<path fill="none" stroke="#FFFFFF" stroke-width="2" stroke-miterlimit="10" d="M68.52,0.32h38.83
		c0,0,36.27,63.26,60.71,169.52l-9.66,3.41l-20.74,2.27l-12.03-7.48c0,0,1.33-14.49-8.14-42.71l-83.91,10.42l-14.96,38.64L8,169.47
		C8,169.47,36.03,60.17,68.52,0.32z"/>
	<path fill="none" stroke="#FFFFFF" stroke-width="2" stroke-miterlimit="10" d="M57.91,132.73c0,0-3.22,15.62-3.51,33.23
		L39.16,176l-20.55-1.61"/>
	<path fill="none" stroke="#FFFFFF" stroke-width="2" stroke-miterlimit="10" d="M33.57,135.75c0,0,44.37-104.18,54.95-111.56
		c0,0,7.36,5.3,24.6,46.22l-67.55,37.83"/>
	<path fill="none" stroke="#FFFFFF" stroke-width="2" stroke-miterlimit="10" d="M69.19,95c0,0,16.23-47.24,19.33-47.61
		c2.34-0.28,7.41,9.56,12.01,30.07"/>
	<path fill="none" stroke="#FFFFFF" stroke-width="2" stroke-miterlimit="10" d="M39.42,122.21c0,0,63.16-21.87,82.76-25.68
		c0.59-0.11,1.18,0.15,1.48,0.66c2.9,4.89,17.9,31.02,34.72,76.06"/>
</g>
</svg>
