<svg xmlns="http://www.w3.org/2000/svg" xmlns:xlink="http://www.w3.org/1999/xlink" viewBox="0,0,256,256" width="240px" height="240px" fill-rule="nonzero"><g fill="#ffffff" fill-rule="nonzero" stroke="none" stroke-width="1" stroke-linecap="butt" stroke-linejoin="miter" stroke-miterlimit="10" stroke-dasharray="" stroke-dashoffset="0" font-family="none" font-weight="none" font-size="none" text-anchor="none" style="mix-blend-mode: normal"><g transform="scale(8.53333,8.53333)"><path d="M6,4c-1.105,0 -2,0.895 -2,2v18c0,1.105 0.895,2 2,2h18c1.105,0 2,-0.895 2,-2v-18c0,-1.105 -0.895,-2 -2,-2zM18.70898,9.75391h1.69531v10.36914h-1.64062v-1.18164h-0.11719c-0.424,0.82 -1.28522,1.30469 -2.32422,1.30469c-1.894,0 -3.07617,-1.48819 -3.07617,-3.86719c0,-2.365 1.18917,-3.85547 3.07617,-3.85547c1.025,0 1.87448,0.4925 2.27148,1.3125h0.11523zM9.5957,10.25977h1.76367v9.86328h-1.76367zM16.84961,13.96484c-1.155,0 -1.86719,0.91592 -1.86719,2.41992c0,1.511 0.70519,2.41992 1.86719,2.41992c1.169,0 1.87891,-0.91592 1.87891,-2.41992c0,-1.49 -0.71691,-2.41992 -1.87891,-2.41992z"></path></g></g></svg>