<svg xmlns="http://www.w3.org/2000/svg" xmlns:xlink="http://www.w3.org/1999/xlink" viewBox="0,0,256,256" width="144px" height="144px" fill-rule="nonzero"><g fill="#ffffff" fill-rule="nonzero" stroke="none" stroke-width="1" stroke-linecap="butt" stroke-linejoin="miter" stroke-miterlimit="10" stroke-dasharray="" stroke-dashoffset="0" font-family="none" font-weight="none" font-size="none" text-anchor="none" style="mix-blend-mode: normal"><g transform="scale(5.33333,5.33333)"><path d="M9,6c-1.66,0 -3,1.34 -3,3v30c0,1.66 1.34,3 3,3h7.5c0,-1.09 0.14969,-11.06063 4.92969,-18.89062l-1.08008,-2.26953c-1.18,-0.37 -3.67961,-1.51984 -5.34961,-4.83984c-0.61,-1.22 -0.84945,-3.20078 -0.93945,-4.55078c-0.04,-0.597 0.44714,-1.0625 0.99414,-1.0625c0.131,0 0.26353,0.02698 0.39453,0.08398c0.92,0.41 2.18078,1.1593 3.55078,2.5293c2.53,2.53 2.66016,5.06008 2.41016,6.58008l0.9707,2.08984c0.14,-0.2 0.27969,-0.39008 0.42969,-0.58008c6.16,-8.05 7.18945,-15.02984 7.18945,-15.08984zM32,6c0,1 -0.12055,8.16016 -6.81055,16.91016c-2.35,3.06 -3.7193,6.74984 -4.5293,10.08984h1.33984c0,0 0,-1 5,-3c2.514,-1.004 5.02916,-1.25 6.91016,-1.25c0.611,0 1.15337,0.02655 1.60938,0.06055c0.74,0.06 1.15977,0.8993 0.75977,1.5293c-1.03,1.63 -3.2493,4.32016 -7.2793,5.66016c-1.569,0.522 -2.845,0.78516 -3.875,0.78516c-1.537,0 -2.527,-0.58716 -3.125,-1.78516h-1.7793c-0.68,3.62 -0.7207,6.47 -0.7207,7h19.5c1.66,0 3,-1.34 3,-3v-30c0,-1.66 -1.34,-3 -3,-3z"></path></g></g></svg>