<?xml version="1.0" encoding="utf-8"?>
<!-- Generator: Adobe Illustrator 24.1.3, SVG Export Plug-In . SVG Version: 6.00 Build 0)  -->
<svg version="1.1" baseProfile="tiny" id="Layer_1" xmlns="http://www.w3.org/2000/svg" xmlns:xlink="http://www.w3.org/1999/xlink"
	 x="0px" y="0px" viewBox="0 0 176 176" overflow="visible" xml:space="preserve">
<g>
	<g transform="scale(8.53333,8.53333)">
		<path fill="none" stroke="#FFFFFF" stroke-width="0.3" stroke-miterlimit="10" d="M3.75,5.62h3.73c1.85,0,3.11,1.26,3.11,3.13
			c0,1.83-1.31,3.09-3.18,3.09H5.4v3.03H3.75L3.75,5.62z M5.4,7v3.46h1.64c1.18,0,1.87-0.62,1.87-1.72C8.91,7.61,8.24,7,7.04,7
			L5.4,7z M14.26,7.71c1.67,0,2.71,0.74,2.83,2.01h-1.49c-0.12-0.49-0.58-0.81-1.33-0.81c-0.72,0-1.27,0.35-1.27,0.85
			c0,0.4,0.33,0.64,1.04,0.8l1.24,0.28c1.34,0.3,1.96,0.88,1.96,1.91c0,1.35-1.24,2.24-2.99,2.24s-2.85-0.76-2.97-2.03h1.57
			c0.15,0.52,0.65,0.83,1.44,0.83c0.8,0,1.36-0.35,1.36-0.87c0-0.4-0.3-0.65-0.97-0.8l-1.24-0.29c-1.35-0.31-1.98-0.93-1.98-1.99
			C11.45,8.59,12.6,7.71,14.26,7.71z M20.63,20.63H0V0h20.63V20.63z"/>
	</g>
</g>
</svg>
