<?xml version="1.0" encoding="utf-8"?>
<!-- Generator: Adobe Illustrator 24.1.3, SVG Export Plug-In . SVG Version: 6.00 Build 0)  -->
<svg version="1.1" baseProfile="tiny" id="Layer_3" xmlns="http://www.w3.org/2000/svg" xmlns:xlink="http://www.w3.org/1999/xlink"
	 x="0px" y="0px" viewBox="0 0 176 176" overflow="visible" xml:space="preserve">
<g>
	<path fill="none" stroke="#FFFFFF" stroke-width="2" stroke-miterlimit="10" d="M22.16,0.22h55.67c0,0,18.06,0.71,28.79,6.07
		c10.66,5.33,51.44,24.88,16.45,84.15c-0.36,0.61-0.79,1.18-1.24,1.73c-1.22,1.49-3.68,5.5-1.13,11.35
		c3.28,7.51,22.47,39.23,45.76,70.13c0,0-31.47,0.42-31.89,0c-0.42-0.42-14.82,0.56-20.04-5.79c-5.22-6.35-27.62-38.67-27.62-38.67
		s-15.21-22.43-21.48-10.47c-0.2,0.38-0.29,0.82-0.29,1.25v48.03l-24.27,7.76l10.87-80.86C51.73,94.91,26.04,79.67,22.16,0.22z"/>
	<polyline fill="none" stroke="#FFFFFF" stroke-width="2" stroke-miterlimit="10" points="40.86,176 24.21,169.14 22.16,1.28 	
		"/>
	<path fill="none" stroke="#FFFFFF" stroke-width="2" stroke-miterlimit="10" d="M166.45,173.65
		c-2.54-1.27-50.2-38.6-64.49-58.28C88.94,97.44,56.59,95.16,52.22,94.93c-0.07,0-0.07-0.1,0-0.12c4.55-0.87,38.07-7.53,44.81-11.34
		c6-3.39,21.59-10.02,19.33-28.22c-2.23-18.01-3.36-26.35-26.77-33.23c-0.51-0.15-1.05-0.27-1.58-0.36
		c-1.91-0.31-6.91-1.02-12.86-1.13c-7.62-0.14-16.93-0.56-18.91,9.6c-1.77,9.09-0.26,21.23,0.08,23.69c0.04,0.3,0.12,0.59,0.23,0.87
		c0.81,1.97,4.47,10.21,9.43,11.57l11.71,0.42c0,0,17-1.41,16.62-13.55c-0.39-12.14-4.76-15.8-16.05-16.37S63.33,35.75,62.87,49.9
		c-0.46,14.14,2.82,16.28,2.82,16.28"/>
</g>
</svg>
