<svg xmlns="http://www.w3.org/2000/svg" xmlns:xlink="http://www.w3.org/1999/xlink" viewBox="0,0,256,256" width="100px" height="100px" fill-rule="nonzero"><g fill="#ffffff" fill-rule="nonzero" stroke="none" stroke-width="1" stroke-linecap="butt" stroke-linejoin="miter" stroke-miterlimit="10" stroke-dasharray="" stroke-dashoffset="0" font-family="none" font-weight="none" font-size="none" text-anchor="none" style="mix-blend-mode: normal"><g transform="scale(5.12,5.12)"><path d="M14,5c-4.971,0 -9,4.029 -9,9v22c0,4.971 4.029,9 9,9h22c4.971,0 9,-4.029 9,-9v-22c0,-4.971 -4.029,-9 -9,-9zM15.96875,11.0625c1.51027,-0.04701 2.71289,0.50709 2.71289,2.29297c0,4.082 -3.76953,10.05078 -3.76953,10.05078l1.88477,1.25586c0,0 5.33848,-5.49634 4.39648,-11.77734c1.708,0.731 5.4917,4.77056 5.4707,7.72656c-1.889,2.154 -4.84037,4.34628 -7.73437,5.73828l-0.24805,0.19727c0,0 0.50816,0.94208 0.91016,2.33008c0.37,1.276 0.6467,3.08237 0.3457,4.73438c-5.653,-9.422 -13.19141,-6.9082 -13.19141,-6.9082c-0.314,-0.314 -0.94141,-1.41242 -0.94141,-2.98242c0,-1.602 0.62831,-2.66992 1.57031,-2.66992c0.942,0 4.08248,0.78561 4.39648,1.09961c0.314,-1.57 1.57014,-6.43862 -1.25586,-9.26562c1.05975,-0.7065 3.51135,-1.76183 5.45313,-1.82227zM27.51953,22.63477c0.367,0.236 0.58398,0.55969 0.58398,0.92969c0,2.504 1.88462,3.59766 3.14063,3.59766c1.256,0 1.68263,-0.50394 3.14063,-1.08594c1.57,-0.626 -0.94081,2.83053 -1.88281,3.76953c2.512,2.504 8.79169,-2.82534 11.30469,-5.65234c-0.002,5.633 -8.48092,10.16842 -8.79492,11.10742c-0.176,0.526 -0.84453,2.81464 -1.89453,4.18164c-0.02,-0.33 -0.08369,-0.81505 -0.30469,-0.37305c-0.314,0.628 -0.94186,0.00059 -1.25586,-0.94141c-0.314,-0.942 0.94186,-1.57 1.25586,0c0.628,-0.942 0.31264,-2.82617 -0.94336,-2.82617c-1.57,0 -0.94141,2.19727 -0.94141,2.19727c0,0 -0.60986,-0.29495 -1.25586,-0.62695c1.588,2.217 1.69986,2.99262 1.25586,3.14063l-0.42773,0.10156c-0.167,-0.123 -0.33867,-0.2777 -0.51367,-0.4707c-2.826,-3.13 -5.65206,-4.18845 -8.16406,-4.81445c0.294,-0.88 0.37747,-2.00574 0.35547,-3.05273c0.383,1.198 3.39802,2.46067 4.04102,1.01367c1.256,-2.826 3.45448,-2.51172 4.39648,-2.51172c-3.141,-1.57 -4.39544,0.94186 -5.02344,1.25586c-0.628,0.314 -1.57122,-0.62786 -2.19922,-1.25586c-0.801,-0.801 -0.31355,-1.25677 0.31445,-1.88477c-1.722,0 -2.54391,-0.36369 -2.87891,-0.80469c2.467,-1.33 4.89641,-3.14414 6.69141,-4.99414zM24.33398,29.08594c-0.15425,0 -0.30973,0.05778 -0.42773,0.17578c-0.236,0.236 -0.236,0.61752 0,0.85352l0.62891,0.62695c0.118,0.118 0.27178,0.17773 0.42578,0.17773c0.154,0 0.30878,-0.05973 0.42578,-0.17773c0.236,-0.236 0.236,-0.61556 0,-0.85156l-0.62695,-0.62891c-0.118,-0.118 -0.27153,-0.17578 -0.42578,-0.17578z"></path></g></g></svg>