<?xml version="1.0" encoding="utf-8"?>
<!-- Generator: Adobe Illustrator 24.1.3, SVG Export Plug-In . SVG Version: 6.00 Build 0)  -->
<svg version="1.1" baseProfile="tiny" id="Layer_1" xmlns="http://www.w3.org/2000/svg" xmlns:xlink="http://www.w3.org/1999/xlink"
	 x="0px" y="0px" viewBox="0 0 176 176" overflow="visible" xml:space="preserve">
<g>
	<g transform="scale(5.12,5.12)">
		<path fill="none" stroke="#FFFFFF" stroke-width="0.5" stroke-miterlimit="10" d="M34.38,0H0v34.38h34.38V0z M9.43,5.21
			c1.3-0.04,2.33,0.44,2.33,1.97c0,3.51-3.24,8.64-3.24,8.64l1.62,1.08c0,0,4.59-4.72,3.78-10.12c1.47,0.63,4.72,4.1,4.7,6.64
			c-1.62,1.85-4.16,3.74-6.65,4.93l-0.21,0.17c0,0,0.44,0.81,0.78,2c0.32,1.1,0.56,2.65,0.3,4.07C7.98,16.49,1.5,18.65,1.5,18.65
			c-0.27-0.27-0.81-1.21-0.81-2.56c0-1.38,0.54-2.29,1.35-2.29s3.51,0.68,3.78,0.94c0.27-1.35,1.35-5.53-1.08-7.96
			C5.65,6.17,7.76,5.26,9.43,5.21L9.43,5.21z M19.35,15.15c0.32,0.2,0.5,0.48,0.5,0.8c0,2.15,1.62,3.09,2.7,3.09
			c1.08,0,1.45-0.43,2.7-0.93c1.35-0.54-0.81,2.43-1.62,3.24c2.16,2.15,7.56-2.43,9.71-4.86c0,4.84-7.29,8.74-7.56,9.55
			c-0.15,0.45-0.73,2.42-1.63,3.59c-0.02-0.28-0.07-0.7-0.26-0.32c-0.27,0.54-0.81,0-1.08-0.81c-0.27-0.81,0.81-1.35,1.08,0
			c0.54-0.81,0.27-2.43-0.81-2.43c-1.35,0-0.81,1.89-0.81,1.89s-0.52-0.25-1.08-0.54c1.36,1.91,1.46,2.57,1.08,2.7l-0.37,0.09
			c-0.14-0.11-0.29-0.24-0.44-0.4c-2.43-2.69-4.86-3.6-7.02-4.14c0.25-0.76,0.32-1.72,0.31-2.62c0.33,1.03,2.92,2.11,3.47,0.87
			c1.08-2.43,2.97-2.16,3.78-2.16c-2.7-1.35-3.78,0.81-4.32,1.08c-0.54,0.27-1.35-0.54-1.89-1.08c-0.69-0.69-0.27-1.08,0.27-1.62
			c-1.48,0-2.19-0.31-2.47-0.69C15.72,18.3,17.81,16.74,19.35,15.15L19.35,15.15z M16.62,20.7c-0.29,0-0.58,0.23-0.54,0.71
			l0.71,0.71c0.1,0.1,0.23,0.15,0.37,0.15c0.29,0,0.58-0.24,0.53-0.72l-0.7-0.71C16.88,20.75,16.75,20.7,16.62,20.7L16.62,20.7z"/>
	</g>
</g>
</svg>
