<?xml version="1.0" encoding="utf-8"?>
<!-- Generator: Adobe Illustrator 24.1.3, SVG Export Plug-In . SVG Version: 6.00 Build 0)  -->
<svg version="1.1" id="Layer_1" xmlns="http://www.w3.org/2000/svg" xmlns:xlink="http://www.w3.org/1999/xlink" x="0px" y="0px"
	 viewBox="0 0 841.89 595.28" style="enable-background:new 0 0 841.89 595.28;" xml:space="preserve">
<style type="text/css">
	.st0{fill:#010202;}
</style>
<path class="st0" d="M566.64,64.52H393.01h-12.97h-19.46v450.46h19.46h12.97h173.64c124.37,0,225.23-100.85,225.23-225.23
	S691.02,64.52,566.64,64.52z"/>
<rect x="58.23" y="64.69" class="st0" width="292.68" height="142.97"/>
<circle class="st0" cx="130.92" cy="288.94" r="72.68"/>
<path class="st0" d="M350.91,216.26v105.99c-0.05,0.26-0.05,0.58-0.11,0.85c-16.05,108.64-109.7,192.07-222.79,192.07H58.26V369.29
	h73.73c0.37,0,0.74,0,1.11-0.05c40.31-0.53,73.36-31.2,77.71-70.5v-8.79c0-35.65,25.27-65.36,58.85-72.25
	c1.17-0.21,2.38-0.42,3.6-0.64c1.32-0.21,2.65-0.37,4.03-0.48c2.22-0.21,4.45-0.32,6.67-0.32H350.91z"/>
<path class="st0" d="M133.08,369.21v0.05h-1.11C132.34,369.27,132.71,369.27,133.08,369.21z"/>
</svg>
