<?xml version="1.0" encoding="utf-8"?>
<!-- Generator: Adobe Illustrator 24.1.3, SVG Export Plug-In . SVG Version: 6.00 Build 0)  -->
<svg version="1.1" baseProfile="tiny" id="Layer_1" xmlns="http://www.w3.org/2000/svg" xmlns:xlink="http://www.w3.org/1999/xlink"
	 x="0px" y="0px" viewBox="0 0 176 176" overflow="visible" xml:space="preserve">
<g>
	<g transform="scale(5.12,5.12)">
		<path fill="none" stroke="#FFFFFF" stroke-width="0.4" stroke-miterlimit="10" d="M17.79,2.76c-0.15-0.01-0.29-0.01-0.44,0
			c-0.59,0.06-1.13,0.36-1.5,0.82c-0.77,0.96-0.62,2.37,0.34,3.14l2.46,1.98H6.01c-1.23,0-2.23,1-2.23,2.23s1,2.23,2.23,2.23h5.54
			l-10.6,8.57c-0.48,0.39-0.78,0.94-0.85,1.56c-0.06,0.62,0.11,1.22,0.5,1.7s0.94,0.78,1.56,0.85c0.62,0.06,1.22-0.11,1.7-0.5
			l5.16-4.17c0.43,5.91,5.93,10.6,12.63,10.6c6.98,0,12.66-5.09,12.66-11.35c0-3.87-2.17-7.43-5.8-9.53l-9.51-7.65
			C18.64,2.97,18.22,2.8,17.79,2.76L17.79,2.76z M21.64,13.92c3.69,0,6.7,2.5,6.7,5.58s-3.01,5.58-6.7,5.58s-6.7-2.5-6.7-5.58
			S17.95,13.92,21.64,13.92z M21.64,15.41c-2.47,0-4.47,1.67-4.47,3.72s2,3.72,4.47,3.72s4.47-1.67,4.47-3.72
			S24.11,15.41,21.64,15.41z"/>
	</g>
</g>
</svg>
