<?xml version="1.0" encoding="utf-8"?>
<!-- Generator: Adobe Illustrator 24.1.3, SVG Export Plug-In . SVG Version: 6.00 Build 0)  -->
<svg version="1.1" baseProfile="tiny" id="Layer_1" xmlns="http://www.w3.org/2000/svg" xmlns:xlink="http://www.w3.org/1999/xlink"
	 x="0px" y="0px" viewBox="0 0 176 176" overflow="visible" xml:space="preserve">
<g>
	<g transform="scale(8.53333,8.53333)">
		<path fill="none" stroke="#FFFFFF" stroke-width="0.3" stroke-miterlimit="10" d="M20.64,0H0v20.64h20.64V0z M14.68,4.92
			c0.58,0,0.98,0.37,0.98,0.88s-0.4,0.88-0.98,0.88S13.7,6.31,13.7,5.8S14.1,4.92,14.68,4.92L14.68,4.92z M7.31,5.58h1.86l3.29,9.25
			h-1.77L9.9,12.47H6.5l-0.8,2.36H4.02L7.31,5.58z M8.14,7.34l-1.27,3.81H9.5L8.25,7.34H8.14z M13.89,7.82h1.58v7.01h-1.58V7.82z"/>
	</g>
</g>
</svg>
