<?xml version="1.0" encoding="utf-8"?>
<!-- Generator: Adobe Illustrator 24.1.3, SVG Export Plug-In . SVG Version: 6.00 Build 0)  -->
<svg version="1.1" baseProfile="tiny" id="Layer_1" xmlns="http://www.w3.org/2000/svg" xmlns:xlink="http://www.w3.org/1999/xlink"
	 x="0px" y="0px" viewBox="0 0 176 176" overflow="visible" xml:space="preserve">
<g>
	<g transform="scale(8.53333,8.53333)">
		<path fill="none" stroke="#FFFFFF" stroke-width="0.3" stroke-miterlimit="10" d="M20.64,0H0v20.64h20.64V0z M13.79,5.39h1.59
			v9.72h-1.54V14h-0.11c-0.4,0.77-1.2,1.22-2.18,1.22c-1.78,0-2.88-1.4-2.88-3.63c0-2.22,1.11-3.61,2.88-3.61
			c0.96,0,1.76,0.46,2.13,1.23h0.11V5.39z M5.25,5.87H6.9v9.25H5.25V5.87z M12.05,9.34c-1.08,0-1.75,0.86-1.75,2.27
			c0,1.42,0.66,2.27,1.75,2.27c1.1,0,1.76-0.86,1.76-2.27C13.81,10.21,13.14,9.34,12.05,9.34z"/>
	</g>
</g>
</svg>
