<?xml version="1.0" encoding="utf-8"?>
<!-- Generator: Adobe Illustrator 24.1.3, SVG Export Plug-In . SVG Version: 6.00 Build 0)  -->
<svg version="1.1" baseProfile="tiny" id="Layer_1" xmlns="http://www.w3.org/2000/svg" xmlns:xlink="http://www.w3.org/1999/xlink"
	 x="0px" y="0px" viewBox="0 0 176 176" overflow="visible" xml:space="preserve">
<g>
	<g transform="scale(5.33333,5.33333)">
		<path fill="none" stroke="#FFFFFF" stroke-width="0.4" stroke-miterlimit="10" d="M0,0v33l0,0h9.63
			c0-0.99,0.13-10.13,4.51-17.31l-0.99-2.08c-1.08-0.34-3.37-1.4-4.9-4.43C7.69,8.05,7.46,6.24,7.38,5
			C7.35,4.45,7.79,4.02,8.29,4.02c0.11,0,0.24,0.03,0.36,0.08c0.85,0.37,2,1.06,3.26,2.31c2.31,2.31,2.44,4.64,2.22,6.03l0.9,1.92
			c0.11-0.2,0.24-0.37,0.39-0.54C21.04,6.45,21.99,0.05,21.99,0H0z M23.83,0c0,0.91-0.11,7.48-6.24,15.49
			c-2.15,2.8-3.4,6.19-4.15,9.25h1.22c0,0,0-0.91,4.58-2.75c2.3-0.91,4.61-1.14,6.34-1.14c0.55,0,1.06,0.02,1.48,0.05
			c0.68,0.05,1.06,0.83,0.7,1.4c-0.94,1.5-2.98,3.96-6.66,5.18c-1.43,0.47-2.61,0.72-3.55,0.72c-1.4,0-2.31-0.54-2.87-1.63h-1.65
			c-0.62,3.32-0.67,5.93-0.67,6.42L33,33l0,0V0l0,0H23.83z"/>
	</g>
</g>
</svg>
